<svg xmlns="http://www.w3.org/2000/svg" xmlns:xlink="http://www.w3.org/1999/xlink" x="0" y="0" version="1.1" viewBox="0 0 2200 2200" style="enable-background:new 0 0 2200 2200" xml:space="preserve"><g id="Background"><rect style="fill:#fff" width="2200" height="2200"/></g><g id="Objects"><g><radialGradient id="SVGID_1_" cx="742.482" cy="737.552" r="1257.272" gradientUnits="userSpaceOnUse"><stop offset="0" style="stop-color:#63dffc"/><stop offset="1" style="stop-color:#3f7cd1"/></radialGradient><path style="fill:url(#SVGID_1_)" d="M1903,1100c0,215.52-84.91,411.21-223.1,555.44C1533.74,1808.01,1327.96,1903,1100,1903 s-433.74-94.99-579.9-247.56C381.91,1511.21,297,1315.52,297,1100c0-443.48,359.52-803,803-803S1903,656.52,1903,1100z"/><radialGradient id="SVGID_00000104698309287865493900000001749800286949306755_" cx="1024.057" cy="699.494" r="480.558" gradientUnits="userSpaceOnUse"><stop offset="0" style="stop-color:#fff"/><stop offset=".999" style="stop-color:#d1d1d1"/></radialGradient><circle style="fill:url(#SVGID_00000104698309287865493900000001749800286949306755_)" cx="1100" cy="815.047" r="328.046"/><radialGradient id="SVGID_00000123438996930488595010000002696201408001185471_" cx="965.752" cy="1455.623" r="674.959" gradientUnits="userSpaceOnUse"><stop offset="0" style="stop-color:#fff"/><stop offset=".999" style="stop-color:#d1d1d1"/></radialGradient><path style="fill:url(#SVGID_00000123438996930488595010000002696201408001185471_)" d="M1679.9,1655.44 C1533.74,1808.01,1327.96,1903,1100,1903s-433.74-94.99-579.9-247.56c82.54-240.93,311-414.12,579.9-414.12 S1597.36,1414.51,1679.9,1655.44z"/></g></g></svg>