<svg width="200" height="200" viewBox="0 0 200 200" fill="none" xmlns="http://www.w3.org/2000/svg">
  <path d="M106.342 20C109.045 20 111.721 20.5324 114.219 21.5668C116.716 22.6012 118.985 24.1174 120.896 26.0287C122.808 27.9401 124.324 30.2091 125.358 32.7064C126.393 35.2037 126.925 37.8803 126.925 40.5833L126.917 45H156.342C158.552 45 160.671 45.878 162.234 47.4408C163.797 49.0036 164.675 51.1232 164.675 53.3333L164.667 82.4917L151.917 82.5C146.694 82.5013 141.666 84.4881 137.854 88.0579C134.041 91.6277 131.728 96.5134 131.383 101.725L131.342 103.083V103.583C131.341 108.808 133.327 113.837 136.897 117.652C140.467 121.466 145.354 123.78 150.567 124.125L151.925 124.167L164.667 124.158L164.675 153.358C164.675 155.568 163.797 157.688 162.234 159.251C160.671 160.814 158.552 161.692 156.342 161.692L126.917 161.683V166.083C126.972 168.821 126.48 171.541 125.471 174.087C124.461 176.632 122.954 178.95 121.038 180.905C119.121 182.86 116.834 184.414 114.31 185.474C111.786 186.535 109.075 187.081 106.337 187.081C103.6 187.081 100.889 186.535 98.365 185.474C95.8408 184.414 93.5536 182.86 91.6372 180.905C89.7208 178.95 88.2137 176.632 87.2043 174.087C86.1948 171.541 85.7032 168.821 85.7583 166.083V161.683H56.3417C54.1315 161.683 52.0119 160.805 50.4491 159.243C48.8863 157.68 48.0083 155.56 48.0083 153.35L48 123.925H43.5833C38.1243 123.925 32.8888 121.756 29.0287 117.896C25.1686 114.036 23 108.801 23 103.342C23 97.8826 25.1686 92.6472 29.0287 88.787C32.8888 84.9269 38.1243 82.7583 43.5833 82.7583H48.0083V53.3333C48.0083 51.1232 48.8863 49.0036 50.4491 47.4408C52.0119 45.878 54.1315 45 56.3417 45H85.7583V40.5833C85.7583 35.1243 87.9269 29.8888 91.787 26.0287C95.6472 22.1686 100.883 20 106.342 20Z" fill="url(#paint0_linear_33_75)" style="" />
  <path d="M106.342 20C109.045 20 111.721 20.5324 114.219 21.5668C116.716 22.6012 118.985 24.1174 120.896 26.0287C122.808 27.9401 124.324 30.2091 125.358 32.7064C126.393 35.2037 126.925 37.8803 126.925 40.5833L126.917 45H156.342C158.552 45 160.671 45.878 162.234 47.4408C163.797 49.0036 164.675 51.1232 164.675 53.3333L164.667 82.4917L151.917 82.5C146.694 82.5013 141.666 84.4881 137.854 88.0579C134.041 91.6277 131.728 96.5134 131.383 101.725L131.342 103.083V103.583C131.341 108.808 133.327 113.837 136.897 117.652C140.467 121.466 145.354 123.78 150.567 124.125L151.925 124.167L164.667 124.158L164.675 153.358C164.675 155.568 163.797 157.688 162.234 159.251C160.671 160.814 158.552 161.692 156.342 161.692L126.917 161.683V166.083C126.972 168.821 126.48 171.541 125.471 174.087C124.461 176.632 122.954 178.95 121.038 180.905C119.121 182.86 116.834 184.414 114.31 185.474C111.786 186.535 109.075 187.081 106.337 187.081C103.6 187.081 100.889 186.535 98.365 185.474C95.8408 184.414 93.5536 182.86 91.6372 180.905C89.7208 178.95 88.2137 176.632 87.2043 174.087C86.1948 171.541 85.7032 168.821 85.7583 166.083V161.683H56.3417C54.1315 161.683 52.0119 160.805 50.4491 159.243C48.8863 157.68 48.0083 155.56 48.0083 153.35L48 123.925H43.5833C38.1243 123.925 32.8888 121.756 29.0287 117.896C25.1686 114.036 23 108.801 23 103.342C23 97.8826 25.1686 92.6472 29.0287 88.787C32.8888 84.9269 38.1243 82.7583 43.5833 82.7583H48.0083V53.3333C48.0083 51.1232 48.8863 49.0036 50.4491 47.4408C52.0119 45.878 54.1315 45 56.3417 45H85.7583V40.5833C85.7583 35.1243 87.9269 29.8888 91.787 26.0287C95.6472 22.1686 100.883 20 106.342 20Z" fill="url(#paint1_linear_33_75)" fill-opacity="0.7" style="" />
  <path d="M106.342 20C109.045 20 111.721 20.5324 114.219 21.5668C116.716 22.6012 118.985 24.1174 120.896 26.0287C122.808 27.9401 124.324 30.2091 125.358 32.7064C126.393 35.2037 126.925 37.8803 126.925 40.5833L126.917 45H156.342C158.552 45 160.671 45.878 162.234 47.4408C163.797 49.0036 164.675 51.1232 164.675 53.3333L164.667 82.4917L151.917 82.5C146.694 82.5013 141.666 84.4881 137.854 88.0579C134.041 91.6277 131.728 96.5134 131.383 101.725L131.342 103.083V103.583C131.341 108.808 133.327 113.837 136.897 117.652C140.467 121.466 145.354 123.78 150.567 124.125L151.925 124.167L164.667 124.158L164.675 153.358C164.675 155.568 163.797 157.688 162.234 159.251C160.671 160.814 158.552 161.692 156.342 161.692L126.917 161.683V166.083C126.972 168.821 126.48 171.541 125.471 174.087C124.461 176.632 122.954 178.95 121.038 180.905C119.121 182.86 116.834 184.414 114.31 185.474C111.786 186.535 109.075 187.081 106.337 187.081C103.6 187.081 100.889 186.535 98.365 185.474C95.8408 184.414 93.5536 182.86 91.6372 180.905C89.7208 178.95 88.2137 176.632 87.2043 174.087C86.1948 171.541 85.7032 168.821 85.7583 166.083V161.683H56.3417C54.1315 161.683 52.0119 160.805 50.4491 159.243C48.8863 157.68 48.0083 155.56 48.0083 153.35L48 123.925H43.5833C38.1243 123.925 32.8888 121.756 29.0287 117.896C25.1686 114.036 23 108.801 23 103.342C23 97.8826 25.1686 92.6472 29.0287 88.787C32.8888 84.9269 38.1243 82.7583 43.5833 82.7583H48.0083V53.3333C48.0083 51.1232 48.8863 49.0036 50.4491 47.4408C52.0119 45.878 54.1315 45 56.3417 45H85.7583V40.5833C85.7583 35.1243 87.9269 29.8888 91.787 26.0287C95.6472 22.1686 100.883 20 106.342 20Z" fill="url(#paint2_linear_33_75)" style="" />
  <path d="M106.342 20C109.045 20 111.721 20.5324 114.219 21.5668C116.716 22.6012 118.985 24.1174 120.896 26.0287C122.808 27.9401 124.324 30.2091 125.358 32.7064C126.393 35.2037 126.925 37.8803 126.925 40.5833L126.917 45H156.342C158.552 45 160.671 45.878 162.234 47.4408C163.797 49.0036 164.675 51.1232 164.675 53.3333L164.667 82.4917L151.917 82.5C146.694 82.5013 141.666 84.4881 137.854 88.0579C134.041 91.6277 131.728 96.5134 131.383 101.725L131.342 103.083V103.583C131.341 108.808 133.327 113.837 136.897 117.652C140.467 121.466 145.354 123.78 150.567 124.125L151.925 124.167L164.667 124.158L164.675 153.358C164.675 155.568 163.797 157.688 162.234 159.251C160.671 160.814 158.552 161.692 156.342 161.692L126.917 161.683V166.083C126.972 168.821 126.48 171.541 125.471 174.087C124.461 176.632 122.954 178.95 121.038 180.905C119.121 182.86 116.834 184.414 114.31 185.474C111.786 186.535 109.075 187.081 106.337 187.081C103.6 187.081 100.889 186.535 98.365 185.474C95.8408 184.414 93.5536 182.86 91.6372 180.905C89.7208 178.95 88.2137 176.632 87.2043 174.087C86.1948 171.541 85.7032 168.821 85.7583 166.083V161.683H56.3417C54.1315 161.683 52.0119 160.805 50.4491 159.243C48.8863 157.68 48.0083 155.56 48.0083 153.35L48 123.925H43.5833C38.1243 123.925 32.8888 121.756 29.0287 117.896C25.1686 114.036 23 108.801 23 103.342C23 97.8826 25.1686 92.6472 29.0287 88.787C32.8888 84.9269 38.1243 82.7583 43.5833 82.7583H48.0083V53.3333C48.0083 51.1232 48.8863 49.0036 50.4491 47.4408C52.0119 45.878 54.1315 45 56.3417 45H85.7583V40.5833C85.7583 35.1243 87.9269 29.8888 91.787 26.0287C95.6472 22.1686 100.883 20 106.342 20Z" fill="url(#paint3_linear_33_75)" style="" />
  <path d="M73.568 152.81C73.2361 152.444 72.8163 152.171 72.349 152.016L66.8277 150.213C65.1784 149.636 63.6726 148.698 62.3819 147.472C61.0911 146.245 60.2307 144.73 59.657 142.999L57.8644 137.517C57.71 137.087 57.4362 136.712 57.0756 136.435C56.7308 136.153 56.3004 136 55.8566 136C55.4128 136 54.9824 136.153 54.6376 136.435C54.279 136.723 53.9922 137.084 53.8488 137.517L52.0561 142.999C51.4825 144.658 50.622 146.173 49.403 147.399C48.184 148.626 46.6782 149.564 45.0289 150.141L39.5075 151.944C39.0773 152.088 38.7188 152.377 38.4319 152.738C38.1525 153.084 38 153.517 38 153.964C38 154.41 38.1525 154.843 38.4319 155.19C38.7188 155.551 39.0773 155.84 39.5075 155.984L45.0289 157.787C46.6782 158.364 48.184 159.302 49.4747 160.528C50.6937 161.755 51.6259 163.342 52.1996 165.001L53.9922 170.483C54.1356 170.916 54.4225 171.277 54.781 171.565C55.1258 171.847 55.5562 172 56 172C56.4438 172 56.8742 171.847 57.219 171.565C57.5775 171.277 57.8644 170.916 58.0078 170.483L59.8004 165.001C60.3741 163.342 61.3063 161.827 62.5253 160.528C63.7443 159.302 65.3218 158.364 66.9711 157.787L72.4925 155.984C72.9227 155.84 73.2812 155.551 73.568 155.19C73.8475 154.843 74 154.41 74 153.964C74 153.517 73.8475 153.084 73.568 152.738V152.81Z" fill="url(#paint4_linear_33_75)" style="" />
  <defs>
    <linearGradient id="paint0_linear_33_75" x1="46.6167" y1="10.7417" x2="138.7" y2="184.675" gradientUnits="userSpaceOnUse">
      <stop stop-color="#1EC8B0" style="stop-color:#1EC8B0;stop-color:color(display-p3 0.1176 0.7843 0.6902);stop-opacity:1;" />
      <stop offset="1" stop-color="#2764E7" style="stop-color:#2764E7;stop-color:color(display-p3 0.1529 0.3922 0.9059);stop-opacity:1;" />
    </linearGradient>
    <linearGradient id="paint1_linear_33_75" x1="115.767" y1="40.4667" x2="154.05" y2="202.175" gradientUnits="userSpaceOnUse">
      <stop offset="0.533" stop-color="#FF6CE8" stop-opacity="0" style="stop-color:none;stop-opacity:0;" />
      <stop offset="1" stop-color="#FF6CE8" style="stop-color:#FF6CE8;stop-color:color(display-p3 1.0000 0.4235 0.9098);stop-opacity:1;" />
    </linearGradient>
    <linearGradient id="paint2_linear_33_75" x1="57.5451" y1="20" x2="156.647" y2="173.235" gradientUnits="userSpaceOnUse">
      <stop offset="0.028" stop-color="#E67EEA" style="stop-color:#E67EEA;stop-color:color(display-p3 0.9020 0.4941 0.9176);stop-opacity:1;" />
      <stop offset="0.438" stop-color="#AD64D7" style="stop-color:#AD64D7;stop-color:color(display-p3 0.6784 0.3922 0.8431);stop-opacity:1;" />
      <stop offset="1" stop-color="#794DC5" style="stop-color:#794DC5;stop-color:color(display-p3 0.4745 0.3020 0.7725);stop-opacity:1;" />
    </linearGradient>
    <linearGradient id="paint3_linear_33_75" x1="25.8841" y1="185.828" x2="177.212" y2="56.3376" gradientUnits="userSpaceOnUse">
      <stop stop-color="#FC92CB" style="stop-color:#FC92CB;stop-color:color(display-p3 0.9882 0.5725 0.7961);stop-opacity:1;" />
      <stop offset="0.51" stop-color="#DD3CE2" style="stop-color:#DD3CE2;stop-color:color(display-p3 0.8667 0.2353 0.8863);stop-opacity:1;" />
      <stop offset="1" stop-color="#B91CBF" style="stop-color:#B91CBF;stop-color:color(display-p3 0.7255 0.1098 0.7490);stop-opacity:1;" />
    </linearGradient>
    <linearGradient id="paint4_linear_33_75" x1="79.828" y1="177.935" x2="34.9684" y2="157.421" gradientUnits="userSpaceOnUse">
      <stop stop-color="#FEE5FF" style="stop-color:#FEE5FF;stop-color:color(display-p3 0.9961 0.8980 1.0000);stop-opacity:1;" />
      <stop offset="0.964" stop-color="#F0B6F2" style="stop-color:#F0B6F2;stop-color:color(display-p3 0.9412 0.7137 0.9490);stop-opacity:1;" />
    </linearGradient>
  </defs>
</svg>